# xmcd CD database file
#
# Track frame offsets:
#	150
#	21790
#	40097
#	60947
#	77383
#	97804
#	115040
#	132663
#	150449
#	168041
#	188484
#	208392
#	228012
#	250753
#	271832
#	293054
#
# Disc length: 4136 seconds
#
# Revision: 7
# Processed by: cddbd v1.5.1PL0 Copyright (c) Steve Scherf et al.
# Submitted via: CDex 1.51
#
DISCID=bb102610
DTITLE=Corneille - parce qu'on vient de loin
DYEAR=2004
DGENRE=R&B
TTITLE0=Seul au Monde
TTITLE1=Terre
TTITLE2=Sans Rancune
TTITLE3=Ca Me Va
TTITLE4=Rêves de Star
TTITLE5=Avec Classe
TTITLE6=Parce Qu'on Vient de Loin
TTITLE7=On Regarde
TTITLE8=Tout Va Bien
TTITLE9=Ensemble
TTITLE10=Toi
TTITLE11=Va (On Se Verra)
TTITLE12=Qu'est-ce Que Tu Fais?
TTITLE13=Comme Un Fils
TTITLE14=Laissez-Nous Vivre
TTITLE15=Avec Classe (Angel Dust Remix)
EXTD=YEAR: 2004
EXTT0=
EXTT1=
EXTT2=
EXTT3=
EXTT4=
EXTT5=
EXTT6=
EXTT7=
EXTT8=
EXTT9=
EXTT10=
EXTT11=
EXTT12=
EXTT13=
EXTT14=
EXTT15=
PLAYORDER=
